<!-- 
<svg width="800px" height="800px" viewBox="0 0 24 24" fill="none" xmlns="http://www.w3.org/2000/svg">

<g id="SVGRepo_bgCarrier" stroke-width="0"/>

<g id="SVGRepo_tracerCarrier" stroke-linecap="round" stroke-linejoin="round"/>

<g id="SVGRepo_iconCarrier"> <path d="M4 18L20 18" stroke="#344054" stroke-width="2" stroke-linecap="round"/> <path d="M4 12L20 12" stroke="#344054" stroke-width="2" stroke-linecap="round"/> <path d="M4 6L20 6" stroke="#344054" stroke-width="2" stroke-linecap="round"/> </g>

</svg> -->

<!-- <svg xmlns="http://www.w3.org/2000/svg" viewBox="0 0 56 64"><defs><style>.cls-1{fill-rule:evenodd}</style></defs><g id="Layer_2" data-name="Layer 2"><g id="bank_interest" data-name="bank interest"><path class="cls-1" d="M42.12 44.17H29.28v-5.84l6.61-.09A7.09 7.09 0 0 0 41 36.1c1.81-1.88 2.73-4.89 2.64-8.69a1 1 0 0 0-1-1H37.3c-2.43 0-5.84.25-8 2.23v-3.4a12.7 12.7 0 1 0-2 0v4.48l-.12-.14c-2-2.09-5.41-3.15-10.08-3.15h-6.6a1 1 0 0 0-1 1c-.11 4.58 1 8.17 3.15 10.39a8.39 8.39 0 0 0 6.16 2.47h8.46v3.9H14.66a3.87 3.87 0 0 0-.77 7.67l1.87 9.43A3.45 3.45 0 0 0 19.23 64h19a3.45 3.45 0 0 0 3.47-2.74l1.92-9.66a3.87 3.87 0 0 0-1.53-7.43zm-11.65-13.9c1.63-1.65 4.68-1.84 6.83-1.84h4.36c-.08 2.79-.79 4.95-2.08 6.28a5.06 5.06 0 0 1-3.72 1.52l-6.58.09V32.8a4.42 4.42 0 0 1 1.19-2.53zM17.58 12.64a10.7 10.7 0 1 1 10.7 10.65 10.69 10.69 0 0 1-10.7-10.65zm1.24 25.62a6.35 6.35 0 0 1-4.73-1.86c-1.64-1.67-2.52-4.42-2.59-8h5.59c4.1 0 7 .85 8.64 2.54a5.49 5.49 0 0 1 1.47 3.11 8.14 8.14 0 0 1 .08 1v3.18zm20.95 22.61A1.43 1.43 0 0 1 38.26 62h-19a1.43 1.43 0 0 1-1.51-1.13l-1.78-9h25.6zm2.35-11H14.66a1.87 1.87 0 1 1 0-3.75h27.46a1.87 1.87 0 1 1 0 3.75zM55.51 14a11.85 11.85 0 0 1-4.3-4.32 1 1 0 0 0-.86-.51 1 1 0 0 0-.87.49 11.61 11.61 0 0 1-4.28 4.15 1 1 0 0 0 0 1.72 11.42 11.42 0 0 1 4.17 4.32 1 1 0 0 0 .85.53 1 1 0 0 0 .85-.48 12 12 0 0 1 4.41-4.17 1 1 0 0 0 0-1.73zm-5.24 3.57a13.44 13.44 0 0 0-2.78-2.86 13.62 13.62 0 0 0 2.82-2.73 13.88 13.88 0 0 0 2.85 2.86 14.06 14.06 0 0 0-2.89 2.68zM11.31 14.65a1 1 0 0 0-.49-.87 11.9 11.9 0 0 1-4.3-4.33 1 1 0 0 0-.86-.51 1.06 1.06 0 0 0-.87.49 11.55 11.55 0 0 1-4.28 4.15 1 1 0 0 0 0 1.73 11.45 11.45 0 0 1 4.17 4.32 1 1 0 0 0 .85.52 1 1 0 0 0 .85-.48 12 12 0 0 1 4.41-4.17 1 1 0 0 0 .52-.85zm-5.73 2.69a13.45 13.45 0 0 0-2.77-2.86 13.57 13.57 0 0 0 2.82-2.73 13.92 13.92 0 0 0 2.85 2.86 14.06 14.06 0 0 0-2.9 2.73z"/><path class="cls-1" d="M29.15 19.09V18l.33-.09a3.26 3.26 0 0 0 1.51-1 3 3 0 0 0 .87-2.44 3.07 3.07 0 0 0-2.3-2.61c-.35-.1-.71-.14-1.07-.23s-1.18-.3-1.43-.75a.84.84 0 0 1-.09-.38 1 1 0 0 1 .37-.86 1.74 1.74 0 0 1 1.44-.14 2.8 2.8 0 0 1 1.07.51 1 1 0 0 0 1.26.15 1 1 0 0 0 .41-.79A1.44 1.44 0 0 0 31 8.22a3.67 3.67 0 0 0-1.46-.75l-.34-.09V6.15a.76.76 0 0 0-.29-.64c-.5-.38-1.62-.24-1.62.54v1.3l-.33.09a3 3 0 0 0-1.78 1.39 3.48 3.48 0 0 0-.42 2.3 2.1 2.1 0 0 0 .93 1.53 5.8 5.8 0 0 0 1.73.57 5.19 5.19 0 0 1 1.15.39A2.62 2.62 0 0 1 29 14a1.19 1.19 0 0 1 .48 1.25 1.37 1.37 0 0 1-1.19.85 2.07 2.07 0 0 1-1.77-.76 1.52 1.52 0 0 0-.84-.6 1 1 0 0 0-.75.14 1 1 0 0 0-.44.69 1.25 1.25 0 0 0 .27 1A3.86 3.86 0 0 0 26.89 18l.34.09V19a.85.85 0 0 0 .42.79 1 1 0 0 0 1.5-.7z"/></g></g></svg> -->


<svg xmlns="http://www.w3.org/2000/svg" xmlns:xlink="http://www.w3.org/1999/xlink" viewBox="0 0 64 64"><defs><linearGradient id="linear-gradient" x1="19.29" y1="34.71" x2="44.71" y2="9.29" gradientUnits="userSpaceOnUse"><stop offset="0" stop-color="#54a5ff"/><stop offset="1" stop-color="#8ad3fe"/></linearGradient><linearGradient id="linear-gradient-2" x1="32" y1="30" x2="32" y2="21" xlink:href="#linear-gradient"/><linearGradient id="linear-gradient-3" x1="32" y1="61" x2="32" y2="51" xlink:href="#linear-gradient"/><style>.cls-1{fill:#d7e9f7}</style></defs><g id="Bank"><path class="cls-1" d="M20 31v-2a1 1 0 0 0-1-1H9a1 1 0 0 0-1 1v2a3 3 0 0 0 2 2.82v13.36A3 3 0 0 0 8 50v2a1 1 0 0 0 1 1h10a1 1 0 0 0 1-1v-2a3 3 0 0 0-2-2.82V33.82A3 3 0 0 0 20 31zM38 31v-2a1 1 0 0 0-1-1H27a1 1 0 0 0-1 1v2a3 3 0 0 0 2 2.82v13.36A3 3 0 0 0 26 50v2a1 1 0 0 0 1 1h10a1 1 0 0 0 1-1v-2a3 3 0 0 0-2-2.82V33.82A3 3 0 0 0 38 31zM56 31v-2a1 1 0 0 0-1-1H45a1 1 0 0 0-1 1v2a3 3 0 0 0 2 2.82v13.36A3 3 0 0 0 44 50v2a1 1 0 0 0 1 1h10a1 1 0 0 0 1-1v-2a3 3 0 0 0-2-2.82V33.82A3 3 0 0 0 56 31z"/><path d="M56.63 21.23 36.18 4.49a6.61 6.61 0 0 0-8.36 0L7.37 21.23a1 1 0 0 0-.31 1.11A1 1 0 0 0 8 23h48a1 1 0 0 0 .94-.66 1 1 0 0 0-.31-1.11z" style="fill:url(#linear-gradient)"/><rect x="4" y="21" width="56" height="9" rx="3" style="fill:url(#linear-gradient-2)"/><path d="M32.38 12h-1a.5.5 0 1 1 0-1H34a1 1 0 0 0 0-2h-1V8a1 1 0 0 0-2 0v1a2.49 2.49 0 0 0 .38 5h1a.5.5 0 0 1 0 1H30a1 1 0 0 0 0 2h1v1a1 1 0 0 0 2 0v-1.09a2.49 2.49 0 0 0-.62-4.91z" style="fill:#f0f7fc"/><path d="M56 51H8a5 5 0 0 0-5 5v4a1 1 0 0 0 1 1h56a1 1 0 0 0 1-1v-4a5 5 0 0 0-5-5z" style="fill:url(#linear-gradient-3)"/></g></svg>